<?xml version="1.0" encoding="utf-8"?>
<!-- Generator: Adobe Illustrator 20.1.0, SVG Export Plug-In . SVG Version: 6.00 Build 0)  -->
<svg version="1.1" xmlns="http://www.w3.org/2000/svg" xmlns:xlink="http://www.w3.org/1999/xlink" x="0px" y="0px"
	 viewBox="0 0 2551.2 2551.2" style="enable-background:new 0 0 2551.2 2551.2;" xml:space="preserve">
<g id="Ebene_1">
	<g>
		<g>
			<g>
				<path d="M515.4,2232.6h-66.1l-73.2-226.4c-2.1-7.2-5.9-10.1-11.4-10.1s-8.8,2.9-10.9,10.1l-73.2,226.4h-66.1l80.4-244.1
					c12.2-37,32.8-53.9,69.9-53.9c36.2,0,59.3,17.7,69.9,53.9L515.4,2232.6z"/>
				<path d="M614.2,1940.5v197c0,25.7,8.4,33.7,34.1,33.7H743v61.4h-99.3c-66.1,0-91.7-25.7-91.7-91.7v-200.3H614.2z"/>
				<path d="M853.7,1940.5v197c0,25.7,8.4,33.7,34.1,33.7h94.7v61.4h-99.3c-66.1,0-91.7-25.7-91.7-91.7v-200.3H853.7z"/>
				<path d="M1093.2,1940.5v292.1h-62.3v-292.1H1093.2z"/>
				<path d="M1431.1,2232.6H1365l-73.2-226.4c-2.1-7.2-5.9-10.1-11.4-10.1c-5.5,0-8.8,2.9-10.9,10.1l-73.2,226.4h-66.1l80.4-244.1
					c12.2-37,32.8-53.9,69.9-53.9c36.2,0,59.3,17.7,69.9,53.9L1431.1,2232.6z"/>
				<path d="M1667.2,2156.8c3.8,13.5,7.2,20.2,18.1,20.2c10.1,0,15.6-6.3,15.6-18.5v-218h62.3v225.2c0,45.9-28.6,72.8-76.2,72.8
					c-46.3,0-66.5-21-79.5-67.3l-43.8-154.9c-3.8-13.5-7.2-20.2-18.1-20.2c-10.1,0-15.6,5.9-15.6,18.1v218.4h-62.3V2007
					c0-45.9,28.6-72.4,76.2-72.4c46.3,0,66.5,21,79.5,67.3L1667.2,2156.8z"/>
				<path d="M2045.5,1940.5v61h-122.9c-23.1,0-34.9,12.2-34.9,35.4v99.3c0,23.1,11.8,34.9,34.9,34.9h122.9v61.4h-128.8
					c-57.2,0-91.3-34.5-91.3-91.7v-109c0-57.2,34.1-91.3,91.3-91.3H2045.5z"/>
				<path d="M2336.7,1940.5v61H2197c-25.7,0-33.7,8.4-33.7,34.1v18.5h173.4v61.4h-173.4v21.9c0,25.7,8,33.7,33.7,33.7h139.7v61.4
					h-144.3c-66.1,0-91.3-25.7-91.3-91.7v-109c0-66.1,25.3-91.3,91.3-91.3H2336.7z"/>
			</g>
		</g>
		<g>
			<path d="M958.4,810c-19.5,70.4-27.5,136.1-23.7,196.7c-90.6,85.1-169,185.3-228.9,272.2c57.6-121,127.6-253.6,205.7-388.9
				C927,863.1,942.7,836.4,958.4,810 M1039.5,646.7c-46.9,73.3-94.9,152.1-142.6,234.8c-134.1,232.2-240.5,450.2-303.1,612.7
				c0,0,144.5-282.7,358.4-480.7C944.1,913.4,968.9,792.5,1039.5,646.7L1039.5,646.7z"/>
			<path d="M1407.7,519.2c75.7,110,155,236.2,232.7,370.8c15.5,26.9,30.8,53.8,45.8,80.6c-51.2-52.1-104.1-91.9-158.5-118.9
				C1499.3,730.6,1452.4,613.7,1407.7,519.2 M1275.9,312.7c0,0,172.6,266.5,237.1,550.7c90.8,43.1,170.2,134.2,274.1,259
				c-40-77.3-84.3-158.2-132.1-241C1521,649.3,1385.4,448.2,1275.9,312.7L1275.9,312.7z"/>
			<path d="M1275.9,312.7c-70.5,87.2-151.8,201.7-236.5,334.1c-70.5,145.8-95.3,266.6-87.3,366.8
				c137.3-127.1,303.2-218.9,477.8-178.9C1436.1,605.4,1275.9,312.7,1275.9,312.7z"/>
			<path d="M1365.5,1442.6c118.5,34.9,251.6,52.4,364,61.2c-137.2,11.4-292.1,17.5-453.6,17.5c-31.1,0-62.1-0.2-92.8-0.7
				C1253.9,1502.2,1314.9,1476.2,1365.5,1442.6 M1362.7,1424c-82.8,57.1-199.8,96.1-361.4,108c86.9,4,179.2,6.1,274.7,6.1
				c265.4,0,509.8-19.1,681.5-45.6c-3.7,0-12.3,2.6-16.3,2.6C1827.7,1495.1,1571.8,1487.3,1362.7,1424L1362.7,1424z"/>
			<path d="M1786.9,1122.2c-86.4-127.1-187.6-217.5-275.3-263.3c42.3,183.4,40.4,374.7-81.7,507c155.3,97.1,423.8,120.9,527.5,126.5
				C1917.1,1388.2,1858.8,1261.1,1786.9,1122.2z"/>
			<path d="M969.2,1101.1c-201.2,109.6-375.4,393.2-375.4,393.2l0-0.1c0,0,0,0.1,0,0.1c110.8,17.4,250.5,30.6,407.6,37.8
				c161.5-11.8,278.6-50.8,361.3-107.9C1184.4,1368.9,1022.3,1271.5,969.2,1101.1z"/>
		</g>
		<g>
			<path d="M830.1,1736c-1.2,2.8-2.8,5.2-4.9,7.3s-4.5,3.7-7.3,4.9c-2.8,1.2-5.8,1.8-9,1.8h-21.2v35.9h-8.4v-93.5h29.6
				c3.2,0,6.2,0.6,9,1.8c2.8,1.2,5.3,2.8,7.3,4.9c2.1,2.1,3.7,4.5,4.9,7.3c1.2,2.8,1.8,5.8,1.8,9v11.6
				C831.9,1730.2,831.3,1733.2,830.1,1736z M823.5,1715.5c0-2.1-0.4-4-1.2-5.8c-0.8-1.8-1.9-3.4-3.2-4.8c-1.4-1.4-3-2.4-4.8-3.2
				c-1.8-0.8-3.8-1.2-5.8-1.2h-20.8v41.5h20.8c2.1,0,4-0.4,5.8-1.2c1.8-0.8,3.4-1.8,4.8-3.2c1.4-1.3,2.4-2.9,3.2-4.7
				c0.8-1.8,1.2-3.8,1.2-5.8V1715.5z"/>
			<path d="M902.6,1786l-25.4-39.9h-11.5v39.9h-8.4v-93.5H887c3.2,0,6.2,0.6,8.9,1.8c2.8,1.2,5.2,2.8,7.3,4.9
				c2.1,2.1,3.7,4.5,4.9,7.3c1.2,2.8,1.8,5.8,1.8,9v7.6c0,3.2-0.6,6.2-1.8,9c-1.2,2.8-2.8,5.3-4.9,7.3c-2.1,2.1-4.5,3.7-7.3,4.9
				c-2.8,1.2-5.8,1.8-8.9,1.8l25.4,39.9H902.6z M901.5,1715.5c0-2.1-0.4-4-1.2-5.8c-0.8-1.8-1.8-3.4-3.2-4.8
				c-1.3-1.4-2.9-2.4-4.7-3.2c-1.8-0.8-3.8-1.2-5.8-1.2h-20.9v37.6h20.9c2.1,0,4-0.4,5.8-1.2c1.8-0.8,3.4-1.9,4.7-3.2
				c1.3-1.4,2.4-3,3.2-4.8c0.8-1.8,1.2-3.7,1.2-5.8V1715.5z"/>
			<path d="M988.5,1773.2c-1.2,2.8-2.8,5.2-4.9,7.3s-4.5,3.7-7.3,4.9c-2.8,1.2-5.8,1.8-8.9,1.8h-6.7c-3.2,0-6.2-0.6-9-1.8
				c-2.8-1.2-5.3-2.8-7.3-4.9c-2.1-2.1-3.7-4.5-4.9-7.3c-1.2-2.8-1.8-5.8-1.8-8.9v-50.2c0-3.2,0.6-6.2,1.8-8.9
				c1.2-2.8,2.8-5.2,4.9-7.3c2.1-2.1,4.5-3.7,7.3-4.9s5.8-1.8,9-1.8h6.7c3.2,0,6.2,0.6,8.9,1.8c2.8,1.2,5.2,2.8,7.3,4.9
				c2.1,2.1,3.7,4.5,4.9,7.3c1.2,2.8,1.8,5.8,1.8,8.9v50.2C990.3,1767.5,989.7,1770.5,988.5,1773.2z M981.9,1714.1
				c0-2.1-0.4-4-1.2-5.8c-0.8-1.8-1.8-3.4-3.2-4.7c-1.3-1.3-2.9-2.4-4.7-3.2c-1.8-0.8-3.8-1.2-5.8-1.2h-5.9c-2.1,0-4,0.4-5.8,1.2
				c-1.8,0.8-3.4,1.8-4.8,3.2c-1.4,1.3-2.4,2.9-3.2,4.7c-0.8,1.8-1.2,3.7-1.2,5.8v50.2c0,2.1,0.4,4,1.2,5.8c0.8,1.8,1.9,3.4,3.2,4.8
				c1.4,1.4,3,2.4,4.8,3.2c1.8,0.8,3.7,1.2,5.8,1.2h5.9c2.1,0,4-0.4,5.8-1.2c1.8-0.8,3.4-1.9,4.7-3.2c1.3-1.4,2.4-3,3.2-4.8
				c0.8-1.8,1.2-3.7,1.2-5.8V1714.1z"/>
			<path d="M1070.6,1773.2c-1.2,2.8-2.8,5.2-4.9,7.3c-2.1,2.1-4.5,3.7-7.3,4.9c-2.8,1.2-5.8,1.8-8.9,1.8h-6.7c-3.2,0-6.2-0.6-9-1.8
				c-2.8-1.2-5.3-2.8-7.3-4.9c-2.1-2.1-3.7-4.5-4.9-7.3c-1.2-2.8-1.8-5.8-1.8-8.9v-50.2c0-3.2,0.6-6.2,1.8-8.9
				c1.2-2.8,2.8-5.2,4.9-7.3c2.1-2.1,4.5-3.7,7.3-4.9c2.8-1.2,5.8-1.8,9-1.8h6.7c3.2,0,6.2,0.6,8.9,1.8c2.8,1.2,5.2,2.8,7.3,4.9
				c2.1,2.1,3.7,4.5,4.9,7.3c1.2,2.8,1.8,5.8,1.8,8.9v50.2C1072.4,1767.5,1071.8,1770.5,1070.6,1773.2z M1064,1714.1
				c0-2.1-0.4-4-1.2-5.8c-0.8-1.8-1.8-3.4-3.2-4.7c-1.3-1.3-2.9-2.4-4.7-3.2c-1.8-0.8-3.8-1.2-5.8-1.2h-5.9c-2.1,0-4,0.4-5.8,1.2
				c-1.8,0.8-3.4,1.8-4.8,3.2c-1.4,1.3-2.4,2.9-3.2,4.7c-0.8,1.8-1.2,3.7-1.2,5.8v50.2c0,2.1,0.4,4,1.2,5.8c0.8,1.8,1.9,3.4,3.2,4.8
				c1.4,1.4,3,2.4,4.8,3.2c1.8,0.8,3.7,1.2,5.8,1.2h5.9c2.1,0,4-0.4,5.8-1.2c1.8-0.8,3.4-1.9,4.7-3.2c1.3-1.4,2.4-3,3.2-4.8
				c0.8-1.8,1.2-3.7,1.2-5.8V1714.1z"/>
			<path d="M1111.6,1700.5v34.8h35.8v8h-35.8v42.7h-8.4v-93.5h52.6v8H1111.6z"/>
			<path d="M1270.7,1773.2c-1.2,2.8-2.8,5.2-4.9,7.3s-4.5,3.7-7.3,4.9c-2.8,1.2-5.8,1.8-8.9,1.8h-6.7c-3.2,0-6.2-0.6-9-1.8
				c-2.8-1.2-5.3-2.8-7.3-4.9c-2.1-2.1-3.7-4.5-4.9-7.3c-1.2-2.8-1.8-5.8-1.8-8.9v-50.2c0-3.2,0.6-6.2,1.8-8.9
				c1.2-2.8,2.8-5.2,4.9-7.3c2.1-2.1,4.5-3.7,7.3-4.9s5.8-1.8,9-1.8h6.7c3.2,0,6.2,0.6,8.9,1.8c2.8,1.2,5.2,2.8,7.3,4.9
				c2.1,2.1,3.7,4.5,4.9,7.3c1.2,2.8,1.8,5.8,1.8,8.9v50.2C1272.5,1767.5,1271.9,1770.5,1270.7,1773.2z M1264.1,1714.1
				c0-2.1-0.4-4-1.2-5.8c-0.8-1.8-1.8-3.4-3.2-4.7c-1.3-1.3-2.9-2.4-4.7-3.2c-1.8-0.8-3.8-1.2-5.8-1.2h-5.9c-2.1,0-4,0.4-5.8,1.2
				c-1.8,0.8-3.4,1.8-4.8,3.2c-1.4,1.3-2.4,2.9-3.2,4.7c-0.8,1.8-1.2,3.7-1.2,5.8v50.2c0,2.1,0.4,4,1.2,5.8c0.8,1.8,1.9,3.4,3.2,4.8
				c1.4,1.4,3,2.4,4.8,3.2c1.8,0.8,3.7,1.2,5.8,1.2h5.9c2.1,0,4-0.4,5.8-1.2c1.8-0.8,3.4-1.9,4.7-3.2c1.3-1.4,2.4-3,3.2-4.8
				c0.8-1.8,1.2-3.7,1.2-5.8V1714.1z"/>
			<path d="M1311.7,1700.5v34.8h35.8v8h-35.8v42.7h-8.4v-93.5h52.6v8H1311.7z"/>
			<path d="M1472.6,1764.3c0,3.2-0.6,6.2-1.9,8.9c-1.3,2.8-3,5.2-5.2,7.3c-2.2,2.1-4.7,3.7-7.5,4.9c-2.8,1.2-5.9,1.8-9,1.8h-6.7
				c-3.2,0-6.2-0.6-9-1.8c-2.8-1.2-5.3-2.8-7.5-4.9c-2.2-2.1-3.9-4.5-5.2-7.3c-1.3-2.8-1.9-5.8-1.9-8.9v-3.7l8.4-1.4v5.1
				c0,2.1,0.4,4,1.3,5.8c0.8,1.8,2,3.4,3.4,4.8c1.4,1.4,3.1,2.4,5,3.2c1.9,0.8,3.9,1.2,6,1.2h5.9c2.1,0,4.1-0.4,5.9-1.2
				c1.9-0.8,3.5-1.9,5-3.2c1.4-1.4,2.6-3,3.4-4.8c0.8-1.8,1.3-3.7,1.3-5.8v-2.8c0-3.2-0.6-5.9-1.9-8c-1.3-2.1-2.9-3.9-5-5.4
				c-2.1-1.5-4.4-2.8-7.1-3.8c-2.6-1-5.3-2.1-8.1-3.1c-2.8-1-5.5-2.2-8.1-3.5c-2.6-1.3-5-2.8-7.1-4.7c-2.1-1.9-3.8-4.2-5-6.9
				c-1.3-2.7-1.9-6.1-1.9-10.1v-1.8c0-3.2,0.6-6.2,1.8-8.9c1.2-2.8,2.8-5.2,4.9-7.3c2.1-2.1,4.5-3.7,7.3-4.9s5.8-1.8,9-1.8h6
				c3.2,0,6.2,0.6,8.9,1.8c2.8,1.2,5.2,2.8,7.3,4.9c2.1,2.1,3.7,4.5,4.9,7.3c1.2,2.8,1.8,5.8,1.8,8.9v2.4l-8.4,1.4v-3.8
				c0-2.1-0.4-4-1.2-5.8c-0.8-1.8-1.8-3.4-3.2-4.7c-1.3-1.3-2.9-2.4-4.7-3.2s-3.8-1.2-5.8-1.2h-5.2c-2.1,0-4,0.4-5.8,1.2
				c-1.8,0.8-3.4,1.8-4.8,3.2c-1.4,1.3-2.4,2.9-3.2,4.7c-0.8,1.8-1.2,3.7-1.2,5.8v1.8c0,3,0.6,5.5,1.9,7.6c1.3,2,2.9,3.8,5,5.3
				s4.4,2.7,7.1,3.8c2.6,1.1,5.3,2.2,8.1,3.3c2.8,1.1,5.5,2.3,8.1,3.7c2.6,1.3,5,3,7.1,4.9c2.1,1.9,3.8,4.3,5,7.1
				c1.3,2.8,1.9,6.2,1.9,10.2V1764.3z"/>
			<path d="M1524.1,1700.5v85.5h-8.4v-85.5h-22.3v-8h53v8H1524.1z"/>
			<path d="M1601.6,1764.2h-29.6l-6.1,21.8h-8.7l27.4-93.5h4.4l27.5,93.5h-8.7L1601.6,1764.2z M1574.2,1756.2h25.1L1587,1713
				l-0.3-3.5l-0.3,3.5L1574.2,1756.2z"/>
			<path d="M1639.1,1786v-93.5h8.4v93.5H1639.1z M1684.8,1786l-35.2-46.8l35.2-46.8h10.4l-35.9,46.8l35.9,46.8H1684.8z"/>
			<path d="M1719.3,1786v-93.5h52.6v8h-44.2v34.8h35.8v8h-35.8v34.7h44.2v8H1719.3z"/>
		</g>
	</g>
</g>
</svg>
