<?xml version="1.0" encoding="utf-8"?>
<!-- Generator: Adobe Illustrator 20.1.0, SVG Export Plug-In . SVG Version: 6.00 Build 0)  -->
<svg version="1.1" xmlns="http://www.w3.org/2000/svg" xmlns:xlink="http://www.w3.org/1999/xlink" x="0px" y="0px"
	 viewBox="0 0 2551.2 2551.2" style="enable-background:new 0 0 2551.2 2551.2;" xml:space="preserve">
<g id="Ebene_1">
	<g>
		<g>
			<path class="st1" d="M958.4,810c-19.5,70.4-27.5,136.1-23.7,196.7c-90.6,85.1-169,185.3-228.9,272.2
				c57.6-121,127.6-253.6,205.7-388.9C927,863.1,942.7,836.4,958.4,810 M1039.5,646.7c-46.9,73.3-94.9,152.1-142.6,234.8
				c-134.1,232.2-240.5,450.2-303.1,612.7c0,0,144.5-282.7,358.4-480.7C944.1,913.4,968.9,792.5,1039.5,646.7L1039.5,646.7z"/>
			<path class="st1" d="M1407.7,519.2c75.7,110,155,236.2,232.7,370.8c15.5,26.9,30.8,53.8,45.8,80.6
				c-51.2-52.1-104.1-91.9-158.5-118.9C1499.3,730.6,1452.4,613.7,1407.7,519.2 M1275.9,312.7c0,0,172.6,266.5,237.1,550.7
				c90.8,43.1,170.2,134.2,274.1,259c-40-77.3-84.3-158.2-132.1-241C1521,649.3,1385.4,448.2,1275.9,312.7L1275.9,312.7z"/>
			<path class="st1" d="M1275.9,312.7c-70.5,87.2-151.8,201.7-236.5,334.1c-70.5,145.8-95.3,266.6-87.3,366.8
				c137.3-127.1,303.2-218.9,477.8-178.9C1436.1,605.4,1275.9,312.7,1275.9,312.7z"/>
			<path class="st1" d="M1365.5,1442.6c118.5,34.9,251.6,52.4,364,61.2c-137.2,11.4-292.1,17.5-453.6,17.5
				c-31.1,0-62.1-0.2-92.8-0.7C1253.9,1502.2,1314.9,1476.2,1365.5,1442.6 M1362.7,1424c-82.8,57.1-199.8,96.1-361.4,108
				c86.9,4,179.2,6.1,274.7,6.1c265.4,0,509.8-19.1,681.5-45.6c-3.7,0-12.3,2.6-16.3,2.6C1827.7,1495.1,1571.8,1487.3,1362.7,1424
				L1362.7,1424z"/>
			<path class="st1" d="M1786.9,1122.2c-86.4-127.1-187.6-217.5-275.3-263.3c42.3,183.4,40.4,374.7-81.7,507
				c155.3,97.1,423.8,120.9,527.5,126.5C1917.1,1388.2,1858.8,1261.1,1786.9,1122.2z"/>
			<path class="st1" d="M969.2,1101.1c-201.2,109.6-375.4,393.2-375.4,393.2l0-0.1c0,0,0,0.1,0,0.1
				c110.8,17.4,250.5,30.6,407.6,37.8c161.5-11.8,278.6-50.8,361.3-107.9C1184.4,1368.9,1022.3,1271.5,969.2,1101.1z"/>
		</g>
	</g>
</g>
</svg>
